<svg id="Arson" xmlns="http://www.w3.org/2000/svg" width="93.73" height="162.73" viewBox="0 0 93.73 162.73">
  <defs>
    <style>
      .cls-1 {
        stroke: #000;
        stroke-width: 0.73px;
        fill-rule: evenodd;
      }
    </style>
  </defs>
  <path class="cls-1" d="M653,674.233h5V762h-5V674.233Z" transform="translate(-608.635 -633.635)"/>
  <path class="cls-1" d="M609,737v-5h93v5H609Z" transform="translate(-608.635 -633.635)"/>
  <path class="cls-1" d="M634,707v-5h43v5H634Z" transform="translate(-608.635 -633.635)"/>
  <path id="Shape_11_copy" data-name="Shape 11 copy" class="cls-1" d="M634,677v-5h43v5H634Z" transform="translate(-608.635 -633.635)"/>
  <path id="Shape_11_copy_4" data-name="Shape 11 copy 4" class="cls-1" d="M634,639v-5h43v5H634Z" transform="translate(-608.635 -633.635)"/>
  <path id="Shape_11_copy_2" data-name="Shape 11 copy 2" class="cls-1" d="M634,634h5v43h-5V634Z" transform="translate(-608.635 -633.635)"/>
  <path id="Shape_11_copy_3" data-name="Shape 11 copy 3" class="cls-1" d="M672,634h5v43h-5V634Z" transform="translate(-608.635 -633.635)"/>
  <path id="Shape_11_copy_3-2" data-name="Shape 11 copy 3" class="cls-1" d="M679,762h5v34h-5V762Z" transform="translate(-608.635 -633.635)"/>
  <path id="Shape_11_copy_2-2" data-name="Shape 11 copy 2" class="cls-1" d="M628,762h5v22h-5V762Z" transform="translate(-608.635 -633.635)"/>
  <path id="Shape_11_copy_4-2" data-name="Shape 11 copy 4" class="cls-1" d="M641,767v-5h43v5H641Z" transform="translate(-608.635 -633.635)"/>
  <path id="Shape_11_copy-2" data-name="Shape 11 copy" class="cls-1" d="M628,784v-5h43v5H628Z" transform="translate(-608.635 -633.635)"/>
</svg>
